<svg xmlns="http://www.w3.org/2000/svg" xmlns:xlink="http://www.w3.org/1999/xlink" version="1.1" preserveAspectRatio="xMidYMid meet" width="440.66666666666686" height="101.33333333333337" style=""><rect id="backgroundrect" width="100%" height="100%" x="0" y="0" fill="none" stroke="none"/><defs><path d="M69.97 3.45C69.97 58.18 69.97 88.58 69.97 94.66C69.97 94.66 69.97 94.66 69.97 94.66C22.47 94.66 -3.92 94.66 -9.2 94.66C-9.2 94.66 -9.2 94.66 -9.2 94.66C-9.2 39.93 -9.2 9.53 -9.2 3.45C-9.2 3.45 -9.2 3.45 -9.2 3.45C38.3 3.45 64.69 3.45 69.97 3.45C69.97 3.45 69.97 3.45 69.97 3.45Z" id="aABjPntsk"/><path d="M69.97 3.45C69.97 58.18 69.97 88.58 69.97 94.66C69.97 94.66 69.97 94.66 69.97 94.66C22.47 94.66 -3.92 94.66 -9.2 94.66C-9.2 94.66 -9.2 94.66 -9.2 94.66C-9.2 39.93 -9.2 9.53 -9.2 3.45C-9.2 3.45 -9.2 3.45 -9.2 3.45C38.3 3.45 64.69 3.45 69.97 3.45C69.97 3.45 69.97 3.45 69.97 3.45Z" id="baNYLomSZ"/><path d="M6.7 53C6.7 56.26 6.7 82.33 6.7 85.58C6.7 87.75 7.33 89.45 8.89 90.84C10.3 92.38 12.02 93 14.22 93C16.25 93 17.97 92.38 19.38 90.84C20.95 89.45 21.73 87.75 21.73 85.58C21.73 82.33 21.73 56.26 21.73 53C21.73 44.2 24.86 36.63 31.13 30.45C37.54 24.12 45.22 21.03 54.14 21.03C56.18 21.03 57.9 20.26 59.46 18.87C60.87 17.32 61.65 15.63 61.65 13.62C61.65 11.61 60.87 9.76 59.46 8.37C57.9 6.98 56.18 6.2 54.14 6.2C40.99 6.2 29.87 10.84 20.48 19.95C11.24 29.06 6.7 40.03 6.7 53Z" id="c5bzR4Fee1"/><linearGradient id="gradienta109tUO2b" x1="0" y1="0.9999999670389073" x2="0" y2="0"><stop style="stop-color: #3e4cd1;stop-opacity: 1" offset="0%"/><stop style="stop-color: #0ee4ef;stop-opacity: 1" offset="100%"/></linearGradient><path d="M6.7 53C6.7 56.26 6.7 82.33 6.7 85.58C6.7 87.75 7.33 89.45 8.89 90.84C10.3 92.38 12.02 93 14.22 93C16.25 93 17.97 92.38 19.38 90.84C20.95 89.45 21.73 87.75 21.73 85.58C21.73 82.33 21.73 56.26 21.73 53C21.73 44.2 24.86 36.63 31.13 30.45C37.54 24.12 45.22 21.03 54.14 21.03C56.18 21.03 57.9 20.26 59.46 18.87C60.87 17.32 61.65 15.63 61.65 13.62C61.65 11.61 60.87 9.76 59.46 8.37C57.9 6.98 56.18 6.2 54.14 6.2C40.99 6.2 29.87 10.84 20.48 19.95C11.24 29.06 6.7 40.03 6.7 53Z" id="hYQzZMAzi"/><path d="M120.09 7.94L120.98 7.98L121.86 8.03L123.6 8.19L124.46 8.3L125.31 8.42L126.15 8.56L126.99 8.71L127.82 8.88L128.65 9.06L129.46 9.26L130.27 9.48L131.08 9.71L131.87 9.96L132.66 10.22L133.45 10.5L134.22 10.8L134.99 11.11L135.76 11.43L136.51 11.78L137.26 12.13L138 12.51L138.74 12.9L139.47 13.3L140.19 13.72L140.91 14.15L141.62 14.6L142.32 15.07L143.02 15.55L143.7 16.05L144.39 16.56L145.06 17.09L145.73 17.63L146.4 18.19L147.05 18.76L147.7 19.35L148.35 19.95L148.99 20.57L149.62 21.2L150.24 21.83L150.85 22.47L151.44 23.12L152.01 23.77L152.56 24.44L153.1 25.1L153.63 25.78L154.13 26.46L154.62 27.14L155.1 27.84L155.56 28.54L156 29.24L156.42 29.95L156.83 30.67L157.22 31.4L157.6 32.13L157.96 32.87L158.31 33.62L158.63 34.37L158.95 35.13L159.24 35.89L159.52 36.67L159.78 37.45L160.03 38.23L160.26 39.02L160.48 39.82L160.68 40.63L160.86 41.44L161.03 42.26L161.18 43.09L161.31 43.92L161.43 44.76L161.54 45.61L161.62 46.46L161.7 47.32L161.75 48.19L161.79 49.07L161.82 49.95L161.82 86.52L161.8 86.84L161.79 86.99L161.77 87.14L161.75 87.3L161.73 87.45L161.71 87.59L161.68 87.74L161.65 87.88L161.62 88.03L161.58 88.17L161.54 88.31L161.5 88.45L161.46 88.58L161.41 88.72L161.36 88.85L161.31 88.99L161.26 89.12L161.2 89.25L161.14 89.37L161.08 89.5L161.01 89.63L160.8 89.99L160.73 90.11L160.65 90.23L160.57 90.35L160.49 90.47L160.4 90.58L160.31 90.69L160.22 90.81L160.13 90.92L160.04 91.03L159.94 91.14L159.84 91.24L159.74 91.35L159.63 91.45L159.4 91.68L159.28 91.79L159.16 91.89L158.92 92.09L158.79 92.18L158.67 92.27L158.55 92.36L158.43 92.44L158.3 92.52L158.18 92.6L158.05 92.68L157.92 92.75L157.8 92.82L157.54 92.94L157.28 93.06L157.15 93.11L157.01 93.16L156.75 93.26L156.61 93.3L156.47 93.34L156.34 93.37L156.2 93.41L155.92 93.47L155.78 93.49L155.64 93.52L155.49 93.54L155.35 93.56L155.2 93.57L155.06 93.59L154.91 93.6L154.76 93.6L154.61 93.61L154.46 93.61L154.31 93.62L154.14 93.61L153.98 93.61L153.82 93.6L153.66 93.6L153.51 93.59L153.35 93.57L153.2 93.56L152.9 93.52L152.75 93.49L152.6 93.47L152.46 93.44L152.31 93.41L152.17 93.37L152.03 93.34L151.89 93.3L151.76 93.26L151.62 93.21L151.49 93.16L151.35 93.11L151.22 93.06L150.96 92.94L150.84 92.88L150.71 92.82L150.59 92.75L150.46 92.68L150.22 92.52L150.1 92.44L149.99 92.36L149.87 92.27L149.75 92.18L149.64 92.09L149.31 91.79L149.09 91.57L148.99 91.45L148.87 91.35L148.76 91.24L148.65 91.14L148.54 91.03L148.34 90.81L148.25 90.69L148.07 90.47L147.98 90.35L147.9 90.23L147.82 90.11L147.75 89.99L147.67 89.87L147.6 89.75L147.54 89.63L147.47 89.5L147.41 89.37L147.36 89.25L147.3 89.12L147.25 88.99L147.2 88.85L147.16 88.72L147.11 88.58L147.07 88.45L147.04 88.31L147 88.17L146.97 88.03L146.94 87.88L146.92 87.74L146.89 87.59L146.87 87.45L146.85 87.3L146.84 87.14L146.82 86.99L146.81 86.84L146.8 86.68L146.8 86.52L146.79 86.36L146.79 83.27L146.18 83.78L145.56 84.28L144.94 84.77L144.31 85.25L143.67 85.71L143.04 86.16L142.39 86.59L141.74 87.01L141.09 87.42L140.43 87.82L139.76 88.2L139.09 88.57L138.41 88.92L137.73 89.27L137.05 89.6L136.36 89.91L135.66 90.22L134.96 90.51L133.54 91.05L132.83 91.3L132.11 91.54L131.38 91.76L130.65 91.97L129.92 92.17L129.17 92.36L128.43 92.53L127.68 92.69L126.92 92.84L126.16 92.98L125.4 93.1L124.63 93.21L123.85 93.3L123.07 93.39L122.29 93.46L120.71 93.56L119.91 93.59L119.11 93.61L118.3 93.62L117.41 93.61L116.53 93.58L115.65 93.54L114.78 93.49L113.91 93.42L113.05 93.33L112.2 93.23L111.35 93.11L110.51 92.98L109.67 92.83L108.84 92.67L108.02 92.49L107.2 92.29L106.39 92.08L105.59 91.86L104.79 91.61L104 91.36L103.21 91.08L102.44 90.79L101.66 90.49L100.9 90.17L100.14 89.83L99.39 89.48L98.64 89.11L97.9 88.73L97.17 88.33L96.44 87.92L95.72 87.49L95.01 87.04L94.3 86.58L93.6 86.1L92.91 85.61L92.22 85.1L91.54 84.58L90.87 84.04L90.2 83.48L89.55 82.91L88.89 82.33L87.61 81.11L86.99 80.48L86.38 79.84L85.78 79.2L85.2 78.55L84.64 77.9L84.09 77.24L83.56 76.57L83.05 75.9L82.55 75.22L82.06 74.53L81.6 73.84L81.14 73.14L80.71 72.43L80.29 71.72L79.88 71L79.5 70.27L79.12 69.54L78.77 68.8L78.43 68.06L78.1 67.3L77.79 66.54L77.5 65.78L77.22 65.01L76.96 64.23L76.71 63.44L76.48 62.65L76.27 61.85L76.07 61.04L75.89 60.23L75.72 59.41L75.57 58.58L75.44 57.75L75.32 56.91L75.22 56.06L75.13 55.21L75.06 54.35L75 53.48L74.96 52.61L74.94 51.72L74.93 50.84L74.94 49.95L74.96 49.07L75 48.19L75.06 47.32L75.13 46.46L75.22 45.61L75.32 44.76L75.44 43.92L75.57 43.09L75.72 42.26L75.89 41.44L76.07 40.63L76.27 39.82L76.48 39.02L76.71 38.23L76.96 37.45L77.22 36.67L77.5 35.89L77.79 35.13L78.1 34.37L78.43 33.62L78.77 32.87L79.12 32.13L79.5 31.4L79.88 30.67L80.29 29.95L80.71 29.24L81.14 28.54L81.6 27.84L82.06 27.14L82.55 26.46L83.05 25.78L83.56 25.1L84.09 24.44L84.64 23.77L85.2 23.12L85.78 22.47L86.38 21.83L86.99 21.2L87.61 20.57L88.25 19.95L88.89 19.35L89.55 18.76L90.2 18.19L90.87 17.63L91.54 17.09L92.22 16.56L92.91 16.05L93.6 15.55L94.3 15.07L95.01 14.6L95.72 14.15L96.44 13.72L97.17 13.3L97.9 12.9L98.64 12.51L99.39 12.13L100.14 11.78L100.9 11.43L101.66 11.11L102.44 10.8L103.21 10.5L104 10.22L104.79 9.96L105.59 9.71L106.39 9.48L107.2 9.26L108.02 9.06L108.84 8.88L109.67 8.71L110.51 8.56L111.35 8.42L112.2 8.3L113.05 8.19L113.91 8.11L114.78 8.03L115.65 7.98L116.53 7.94L117.41 7.91L118.3 7.9L119.2 7.91L120.09 7.94ZM116.97 22.76L116.31 22.79L115.66 22.84L115.01 22.9L114.37 22.97L113.73 23.06L113.1 23.16L112.48 23.28L111.86 23.41L111.25 23.55L110.64 23.71L110.04 23.88L109.44 24.06L108.85 24.26L108.26 24.47L107.69 24.7L107.11 24.93L106.54 25.19L105.98 25.45L105.43 25.73L104.87 26.02L104.33 26.33L103.79 26.65L103.26 26.98L102.73 27.33L102.21 27.69L101.7 28.07L101.19 28.45L100.68 28.86L100.19 29.27L99.7 29.7L99.21 30.14L98.73 30.6L98.26 31.07L97.78 31.54L97.32 32.01L96.87 32.49L96.44 32.97L96.02 33.46L95.62 33.96L95.23 34.46L94.86 34.97L94.5 35.48L94.15 36L93.82 36.53L93.5 37.06L93.19 37.6L92.9 38.14L92.63 38.69L92.36 39.24L92.12 39.8L91.88 40.37L91.66 40.94L91.45 41.52L91.26 42.1L91.08 42.69L90.91 43.28L90.76 43.88L90.62 44.49L90.49 45.1L90.38 45.71L90.28 46.33L90.12 47.59L90.02 48.87L89.99 49.52L89.97 50.18L89.96 50.84L89.97 51.5L89.99 52.15L90.02 52.8L90.12 54.08L90.2 54.71L90.28 55.34L90.38 55.96L90.49 56.58L90.62 57.19L90.76 57.79L90.91 58.39L91.08 58.99L91.26 59.57L91.45 60.16L91.66 60.73L91.88 61.31L92.12 61.87L92.36 62.43L92.63 62.99L92.9 63.53L93.19 64.08L93.5 64.62L93.82 65.15L94.15 65.67L94.5 66.19L94.86 66.71L95.23 67.21L95.62 67.72L96.02 68.21L96.44 68.7L96.87 69.19L97.32 69.67L97.78 70.14L98.26 70.6L98.73 71.07L99.21 71.53L99.7 71.97L100.19 72.4L100.68 72.81L101.19 73.21L101.7 73.59L102.21 73.96L102.73 74.32L103.26 74.66L103.79 74.99L104.33 75.3L104.87 75.6L105.43 75.89L105.98 76.16L106.54 76.42L107.11 76.66L107.69 76.9L108.26 77.11L108.85 77.32L109.44 77.51L110.04 77.69L110.64 77.85L111.25 78L111.86 78.14L112.48 78.26L113.1 78.37L113.73 78.47L114.37 78.56L115.01 78.63L115.66 78.69L116.31 78.73L116.97 78.76L117.63 78.78L118.3 78.79L118.97 78.78L119.63 78.76L120.29 78.73L120.94 78.69L121.59 78.63L122.23 78.56L122.86 78.47L123.49 78.37L124.12 78.26L124.74 78.14L125.35 78L125.96 77.85L126.56 77.69L127.16 77.51L127.75 77.32L128.91 76.9L129.49 76.66L130.05 76.42L130.62 76.16L131.17 75.89L131.72 75.6L132.27 75.3L132.81 74.99L133.34 74.66L133.87 74.32L134.39 73.96L134.9 73.59L135.41 73.21L135.91 72.81L136.41 72.4L136.9 71.97L137.39 71.53L137.87 71.07L138.34 70.6L138.82 70.14L139.28 69.67L139.73 69.19L140.16 68.7L140.58 68.21L140.99 67.72L141.38 67.21L141.76 66.71L142.13 66.19L142.48 65.67L142.82 65.15L143.14 64.62L143.45 64.08L143.75 63.53L144.03 62.99L144.3 62.43L144.56 61.87L144.8 61.31L145.03 60.73L145.24 60.16L145.44 59.57L145.63 58.99L145.8 58.39L145.96 57.79L146.1 57.19L146.23 56.58L146.35 55.96L146.46 55.34L146.54 54.71L146.62 54.08L146.68 53.44L146.73 52.8L146.77 52.15L146.79 51.5L146.79 50.18L146.77 49.52L146.73 48.87L146.68 48.23L146.62 47.59L146.54 46.96L146.46 46.33L146.35 45.71L146.23 45.1L146.1 44.49L145.96 43.88L145.8 43.28L145.63 42.69L145.44 42.1L145.24 41.52L145.03 40.94L144.8 40.37L144.56 39.8L144.3 39.24L144.03 38.69L143.75 38.14L143.45 37.6L143.14 37.06L142.82 36.53L142.48 36L142.13 35.48L141.76 34.97L141.38 34.46L140.99 33.96L140.58 33.46L140.16 32.97L139.73 32.49L139.28 32.01L138.82 31.54L138.34 31.07L137.87 30.6L137.39 30.14L136.9 29.7L136.41 29.27L135.41 28.45L134.9 28.07L134.39 27.69L133.87 27.33L133.34 26.98L132.81 26.65L132.27 26.33L131.72 26.02L131.17 25.73L130.62 25.45L130.05 25.19L129.49 24.93L128.91 24.7L128.33 24.47L127.75 24.26L127.16 24.06L126.56 23.88L125.96 23.71L125.35 23.55L124.74 23.41L124.12 23.28L123.49 23.16L122.86 23.06L122.23 22.97L121.59 22.9L120.94 22.84L120.29 22.79L119.63 22.76L118.97 22.74L118.3 22.73L117.63 22.74L116.97 22.76Z" id="f1zBJmAxX1"/><linearGradient id="gradientc13xHepEqD" x1="0" y1="1.0000000166881877" x2="0" y2="0"><stop style="stop-color: #3e4cd1;stop-opacity: 1" offset="0%"/><stop style="stop-color: #0ee4ef;stop-opacity: 1" offset="100%"/></linearGradient><path d="M120.09 7.94L120.98 7.98L121.86 8.03L123.6 8.19L124.46 8.3L125.31 8.42L126.15 8.56L126.99 8.71L127.82 8.88L128.65 9.06L129.46 9.26L130.27 9.48L131.08 9.71L131.87 9.96L132.66 10.22L133.45 10.5L134.22 10.8L134.99 11.11L135.76 11.43L136.51 11.78L137.26 12.13L138 12.51L138.74 12.9L139.47 13.3L140.19 13.72L140.91 14.15L141.62 14.6L142.32 15.07L143.02 15.55L143.7 16.05L144.39 16.56L145.06 17.09L145.73 17.63L146.4 18.19L147.05 18.76L147.7 19.35L148.35 19.95L148.99 20.57L149.62 21.2L150.24 21.83L150.85 22.47L151.44 23.12L152.01 23.77L152.56 24.44L153.1 25.1L153.63 25.78L154.13 26.46L154.62 27.14L155.1 27.84L155.56 28.54L156 29.24L156.42 29.95L156.83 30.67L157.22 31.4L157.6 32.13L157.96 32.87L158.31 33.62L158.63 34.37L158.95 35.13L159.24 35.89L159.52 36.67L159.78 37.45L160.03 38.23L160.26 39.02L160.48 39.82L160.68 40.63L160.86 41.44L161.03 42.26L161.18 43.09L161.31 43.92L161.43 44.76L161.54 45.61L161.62 46.46L161.7 47.32L161.75 48.19L161.79 49.07L161.82 49.95L161.82 86.52L161.8 86.84L161.79 86.99L161.77 87.14L161.75 87.3L161.73 87.45L161.71 87.59L161.68 87.74L161.65 87.88L161.62 88.03L161.58 88.17L161.54 88.31L161.5 88.45L161.46 88.58L161.41 88.72L161.36 88.85L161.31 88.99L161.26 89.12L161.2 89.25L161.14 89.37L161.08 89.5L161.01 89.63L160.8 89.99L160.73 90.11L160.65 90.23L160.57 90.35L160.49 90.47L160.4 90.58L160.31 90.69L160.22 90.81L160.13 90.92L160.04 91.03L159.94 91.14L159.84 91.24L159.74 91.35L159.63 91.45L159.4 91.68L159.28 91.79L159.16 91.89L158.92 92.09L158.79 92.18L158.67 92.27L158.55 92.36L158.43 92.44L158.3 92.52L158.18 92.6L158.05 92.68L157.92 92.75L157.8 92.82L157.54 92.94L157.28 93.06L157.15 93.11L157.01 93.16L156.75 93.26L156.61 93.3L156.47 93.34L156.34 93.37L156.2 93.41L155.92 93.47L155.78 93.49L155.64 93.52L155.49 93.54L155.35 93.56L155.2 93.57L155.06 93.59L154.91 93.6L154.76 93.6L154.61 93.61L154.46 93.61L154.31 93.62L154.14 93.61L153.98 93.61L153.82 93.6L153.66 93.6L153.51 93.59L153.35 93.57L153.2 93.56L152.9 93.52L152.75 93.49L152.6 93.47L152.46 93.44L152.31 93.41L152.17 93.37L152.03 93.34L151.89 93.3L151.76 93.26L151.62 93.21L151.49 93.16L151.35 93.11L151.22 93.06L150.96 92.94L150.84 92.88L150.71 92.82L150.59 92.75L150.46 92.68L150.22 92.52L150.1 92.44L149.99 92.36L149.87 92.27L149.75 92.18L149.64 92.09L149.31 91.79L149.09 91.57L148.99 91.45L148.87 91.35L148.76 91.24L148.65 91.14L148.54 91.03L148.34 90.81L148.25 90.69L148.07 90.47L147.98 90.35L147.9 90.23L147.82 90.11L147.75 89.99L147.67 89.87L147.6 89.75L147.54 89.63L147.47 89.5L147.41 89.37L147.36 89.25L147.3 89.12L147.25 88.99L147.2 88.85L147.16 88.72L147.11 88.58L147.07 88.45L147.04 88.31L147 88.17L146.97 88.03L146.94 87.88L146.92 87.74L146.89 87.59L146.87 87.45L146.85 87.3L146.84 87.14L146.82 86.99L146.81 86.84L146.8 86.68L146.8 86.52L146.79 86.36L146.79 83.27L146.18 83.78L145.56 84.28L144.94 84.77L144.31 85.25L143.67 85.71L143.04 86.16L142.39 86.59L141.74 87.01L141.09 87.42L140.43 87.82L139.76 88.2L139.09 88.57L138.41 88.92L137.73 89.27L137.05 89.6L136.36 89.91L135.66 90.22L134.96 90.51L133.54 91.05L132.83 91.3L132.11 91.54L131.38 91.76L130.65 91.97L129.92 92.17L129.17 92.36L128.43 92.53L127.68 92.69L126.92 92.84L126.16 92.98L125.4 93.1L124.63 93.21L123.85 93.3L123.07 93.39L122.29 93.46L120.71 93.56L119.91 93.59L119.11 93.61L118.3 93.62L117.41 93.61L116.53 93.58L115.65 93.54L114.78 93.49L113.91 93.42L113.05 93.33L112.2 93.23L111.35 93.11L110.51 92.98L109.67 92.83L108.84 92.67L108.02 92.49L107.2 92.29L106.39 92.08L105.59 91.86L104.79 91.61L104 91.36L103.21 91.08L102.44 90.79L101.66 90.49L100.9 90.17L100.14 89.83L99.39 89.48L98.64 89.11L97.9 88.73L97.17 88.33L96.44 87.92L95.72 87.49L95.01 87.04L94.3 86.58L93.6 86.1L92.91 85.61L92.22 85.1L91.54 84.58L90.87 84.04L90.2 83.48L89.55 82.91L88.89 82.33L87.61 81.11L86.99 80.48L86.38 79.84L85.78 79.2L85.2 78.55L84.64 77.9L84.09 77.24L83.56 76.57L83.05 75.9L82.55 75.22L82.06 74.53L81.6 73.84L81.14 73.14L80.71 72.43L80.29 71.72L79.88 71L79.5 70.27L79.12 69.54L78.77 68.8L78.43 68.06L78.1 67.3L77.79 66.54L77.5 65.78L77.22 65.01L76.96 64.23L76.71 63.44L76.48 62.65L76.27 61.85L76.07 61.04L75.89 60.23L75.72 59.41L75.57 58.58L75.44 57.75L75.32 56.91L75.22 56.06L75.13 55.21L75.06 54.35L75 53.48L74.96 52.61L74.94 51.72L74.93 50.84L74.94 49.95L74.96 49.07L75 48.19L75.06 47.32L75.13 46.46L75.22 45.61L75.32 44.76L75.44 43.92L75.57 43.09L75.72 42.26L75.89 41.44L76.07 40.63L76.27 39.82L76.48 39.02L76.71 38.23L76.96 37.45L77.22 36.67L77.5 35.89L77.79 35.13L78.1 34.37L78.43 33.62L78.77 32.87L79.12 32.13L79.5 31.4L79.88 30.67L80.29 29.95L80.71 29.24L81.14 28.54L81.6 27.84L82.06 27.14L82.55 26.46L83.05 25.78L83.56 25.1L84.09 24.44L84.64 23.77L85.2 23.12L85.78 22.47L86.38 21.83L86.99 21.2L87.61 20.57L88.25 19.95L88.89 19.35L89.55 18.76L90.2 18.19L90.87 17.63L91.54 17.09L92.22 16.56L92.91 16.05L93.6 15.55L94.3 15.07L95.01 14.6L95.72 14.15L96.44 13.72L97.17 13.3L97.9 12.9L98.64 12.51L99.39 12.13L100.14 11.78L100.9 11.43L101.66 11.11L102.44 10.8L103.21 10.5L104 10.22L104.79 9.96L105.59 9.71L106.39 9.48L107.2 9.26L108.02 9.06L108.84 8.88L109.67 8.71L110.51 8.56L111.35 8.42L112.2 8.3L113.05 8.19L113.91 8.11L114.78 8.03L115.65 7.98L116.53 7.94L117.41 7.91L118.3 7.9L119.2 7.91L120.09 7.94ZM116.97 22.76L116.31 22.79L115.66 22.84L115.01 22.9L114.37 22.97L113.73 23.06L113.1 23.16L112.48 23.28L111.86 23.41L111.25 23.55L110.64 23.71L110.04 23.88L109.44 24.06L108.85 24.26L108.26 24.47L107.69 24.7L107.11 24.93L106.54 25.19L105.98 25.45L105.43 25.73L104.87 26.02L104.33 26.33L103.79 26.65L103.26 26.98L102.73 27.33L102.21 27.69L101.7 28.07L101.19 28.45L100.68 28.86L100.19 29.27L99.7 29.7L99.21 30.14L98.73 30.6L98.26 31.07L97.78 31.54L97.32 32.01L96.87 32.49L96.44 32.97L96.02 33.46L95.62 33.96L95.23 34.46L94.86 34.97L94.5 35.48L94.15 36L93.82 36.53L93.5 37.06L93.19 37.6L92.9 38.14L92.63 38.69L92.36 39.24L92.12 39.8L91.88 40.37L91.66 40.94L91.45 41.52L91.26 42.1L91.08 42.69L90.91 43.28L90.76 43.88L90.62 44.49L90.49 45.1L90.38 45.71L90.28 46.33L90.12 47.59L90.02 48.87L89.99 49.52L89.97 50.18L89.96 50.84L89.97 51.5L89.99 52.15L90.02 52.8L90.12 54.08L90.2 54.71L90.28 55.34L90.38 55.96L90.49 56.58L90.62 57.19L90.76 57.79L90.91 58.39L91.08 58.99L91.26 59.57L91.45 60.16L91.66 60.73L91.88 61.31L92.12 61.87L92.36 62.43L92.63 62.99L92.9 63.53L93.19 64.08L93.5 64.62L93.82 65.15L94.15 65.67L94.5 66.19L94.86 66.71L95.23 67.21L95.62 67.72L96.02 68.21L96.44 68.7L96.87 69.19L97.32 69.67L97.78 70.14L98.26 70.6L98.73 71.07L99.21 71.53L99.7 71.97L100.19 72.4L100.68 72.81L101.19 73.21L101.7 73.59L102.21 73.96L102.73 74.32L103.26 74.66L103.79 74.99L104.33 75.3L104.87 75.6L105.43 75.89L105.98 76.16L106.54 76.42L107.11 76.66L107.69 76.9L108.26 77.11L108.85 77.32L109.44 77.51L110.04 77.69L110.64 77.85L111.25 78L111.86 78.14L112.48 78.26L113.1 78.37L113.73 78.47L114.37 78.56L115.01 78.63L115.66 78.69L116.31 78.73L116.97 78.76L117.63 78.78L118.3 78.79L118.97 78.78L119.63 78.76L120.29 78.73L120.94 78.69L121.59 78.63L122.23 78.56L122.86 78.47L123.49 78.37L124.12 78.26L124.74 78.14L125.35 78L125.96 77.85L126.56 77.69L127.16 77.51L127.75 77.32L128.91 76.9L129.49 76.66L130.05 76.42L130.62 76.16L131.17 75.89L131.72 75.6L132.27 75.3L132.81 74.99L133.34 74.66L133.87 74.32L134.39 73.96L134.9 73.59L135.41 73.21L135.91 72.81L136.41 72.4L136.9 71.97L137.39 71.53L137.87 71.07L138.34 70.6L138.82 70.14L139.28 69.67L139.73 69.19L140.16 68.7L140.58 68.21L140.99 67.72L141.38 67.21L141.76 66.71L142.13 66.19L142.48 65.67L142.82 65.15L143.14 64.62L143.45 64.08L143.75 63.53L144.03 62.99L144.3 62.43L144.56 61.87L144.8 61.31L145.03 60.73L145.24 60.16L145.44 59.57L145.63 58.99L145.8 58.39L145.96 57.79L146.1 57.19L146.23 56.58L146.35 55.96L146.46 55.34L146.54 54.71L146.62 54.08L146.68 53.44L146.73 52.8L146.77 52.15L146.79 51.5L146.79 50.18L146.77 49.52L146.73 48.87L146.68 48.23L146.62 47.59L146.54 46.96L146.46 46.33L146.35 45.71L146.23 45.1L146.1 44.49L145.96 43.88L145.8 43.28L145.63 42.69L145.44 42.1L145.24 41.52L145.03 40.94L144.8 40.37L144.56 39.8L144.3 39.24L144.03 38.69L143.75 38.14L143.45 37.6L143.14 37.06L142.82 36.53L142.48 36L142.13 35.48L141.76 34.97L141.38 34.46L140.99 33.96L140.58 33.46L140.16 32.97L139.73 32.49L139.28 32.01L138.82 31.54L138.34 31.07L137.87 30.6L137.39 30.14L136.9 29.7L136.41 29.27L135.41 28.45L134.9 28.07L134.39 27.69L133.87 27.33L133.34 26.98L132.81 26.65L132.27 26.33L131.72 26.02L131.17 25.73L130.62 25.45L130.05 25.19L129.49 24.93L128.91 24.7L128.33 24.47L127.75 24.26L127.16 24.06L126.56 23.88L125.96 23.71L125.35 23.55L124.74 23.41L124.12 23.28L123.49 23.16L122.86 23.06L122.23 22.97L121.59 22.9L120.94 22.84L120.29 22.79L119.63 22.76L118.97 22.74L118.3 22.73L117.63 22.74L116.97 22.76Z" id="ff1v2LQKh"/><path d="M246.68 8.83C245.27 8.83 244.02 9.29 242.77 9.91C241.52 10.53 240.73 11.46 240.11 12.69C238.31 16.55 229.34 35.86 213.18 70.6C196.83 35.86 187.75 16.55 185.94 12.69C185.31 11.46 184.37 10.53 183.27 9.91C182.02 9.29 180.93 8.83 179.67 8.83C178.42 8.83 177.33 9.14 176.39 9.6C173.41 11.15 172 13.15 172 15.93C172 17.02 172.16 17.94 172.63 18.71C175.95 25.62 202.5 80.84 205.82 87.75C206.76 89.6 207.7 90.99 208.95 91.76C210.05 92.53 211.46 92.84 213.33 92.84C216.47 92.84 218.97 91.14 220.54 87.75C223.86 80.84 250.41 25.62 253.73 18.71C254.2 17.79 254.51 16.71 254.51 15.78C254.51 14.54 254.04 13.31 253.42 12.23C252.63 11.15 251.54 10.22 250.28 9.6C249.19 9.14 247.94 8.83 246.68 8.83Z" id="buWma260r"/><linearGradient id="gradientd5KHCV6WuO" x1="0" y1="1.00000002270383" x2="0" y2="0"><stop style="stop-color: #3e4cd1;stop-opacity: 1" offset="0%"/><stop style="stop-color: #0ee4ef;stop-opacity: 1" offset="100%"/></linearGradient><path d="M246.68 8.83C245.27 8.83 244.02 9.29 242.77 9.91C241.52 10.53 240.73 11.46 240.11 12.69C238.31 16.55 229.34 35.86 213.18 70.6C196.83 35.86 187.75 16.55 185.94 12.69C185.31 11.46 184.37 10.53 183.27 9.91C182.02 9.29 180.93 8.83 179.67 8.83C178.42 8.83 177.33 9.14 176.39 9.6C173.41 11.15 172 13.15 172 15.93C172 17.02 172.16 17.94 172.63 18.71C175.95 25.62 202.5 80.84 205.82 87.75C206.76 89.6 207.7 90.99 208.95 91.76C210.05 92.53 211.46 92.84 213.33 92.84C216.47 92.84 218.97 91.14 220.54 87.75C223.86 80.84 250.41 25.62 253.73 18.71C254.2 17.79 254.51 16.71 254.51 15.78C254.51 14.54 254.04 13.31 253.42 12.23C252.63 11.15 251.54 10.22 250.28 9.6C249.19 9.14 247.94 8.83 246.68 8.83Z" id="eDamIobmp"/><path d="M337.62 79.1C337.78 76.94 337.31 75.24 335.9 73.54C334.64 71.99 332.92 71.07 330.89 70.91C328.85 70.76 326.97 71.22 325.41 72.61C320.08 76.78 314.13 78.79 307.4 78.79C299.57 78.79 292.84 76.16 287.36 70.6C281.73 65.2 279.06 58.56 279.06 50.84C279.06 43.11 281.73 36.47 287.36 30.91C292.84 25.51 299.57 22.73 307.4 22.73C313.82 22.73 319.61 24.74 324.78 28.6C329.79 32.46 333.08 37.4 334.8 43.42C332.06 43.42 310.14 43.42 307.4 43.42C305.37 43.42 303.49 44.2 302.08 45.59C300.67 46.98 299.89 48.83 299.89 50.84C299.89 52.84 300.67 54.7 302.08 56.09C303.49 57.48 305.37 58.25 307.4 58.25C311 58.25 339.81 58.25 343.41 58.25C345.45 58.25 347.17 57.48 348.58 56.09C350.14 54.7 350.93 52.84 350.93 50.84C350.93 38.94 346.54 28.91 338.09 20.57C329.63 12.23 319.46 7.9 307.4 7.9C295.35 7.9 285.17 12.23 276.72 20.57C268.26 28.91 264.03 38.94 264.03 50.84C264.03 62.73 268.26 72.77 276.72 81.11C285.17 89.45 295.35 93.62 307.4 93.62C317.74 93.62 326.82 90.53 334.8 84.04C336.52 82.8 337.31 81.11 337.62 79.1Z" id="aw39N3Lg"/><linearGradient id="gradienth3iGrZzsmD" x1="0" y1="1.0000000166881877" x2="0" y2="0"><stop style="stop-color: #3e4cd1;stop-opacity: 1" offset="0%"/><stop style="stop-color: #0ee4ef;stop-opacity: 1" offset="100%"/></linearGradient><path d="M337.62 79.1C337.78 76.94 337.31 75.24 335.9 73.54C334.64 71.99 332.92 71.07 330.89 70.91C328.85 70.76 326.97 71.22 325.41 72.61C320.08 76.78 314.13 78.79 307.4 78.79C299.57 78.79 292.84 76.16 287.36 70.6C281.73 65.2 279.06 58.56 279.06 50.84C279.06 43.11 281.73 36.47 287.36 30.91C292.84 25.51 299.57 22.73 307.4 22.73C313.82 22.73 319.61 24.74 324.78 28.6C329.79 32.46 333.08 37.4 334.8 43.42C332.06 43.42 310.14 43.42 307.4 43.42C305.37 43.42 303.49 44.2 302.08 45.59C300.67 46.98 299.89 48.83 299.89 50.84C299.89 52.84 300.67 54.7 302.08 56.09C303.49 57.48 305.37 58.25 307.4 58.25C311 58.25 339.81 58.25 343.41 58.25C345.45 58.25 347.17 57.48 348.58 56.09C350.14 54.7 350.93 52.84 350.93 50.84C350.93 38.94 346.54 28.91 338.09 20.57C329.63 12.23 319.46 7.9 307.4 7.9C295.35 7.9 285.17 12.23 276.72 20.57C268.26 28.91 264.03 38.94 264.03 50.84C264.03 62.73 268.26 72.77 276.72 81.11C285.17 89.45 295.35 93.62 307.4 93.62C317.74 93.62 326.82 90.53 334.8 84.04C336.52 82.8 337.31 81.11 337.62 79.1Z" id="cJP1U1RZl"/><path d="M406.71 51.76C420.9 33.51 428.78 23.37 430.36 21.34C431.76 19.49 432.55 17.48 432.55 15.16C432.55 13.31 431.92 11.76 430.67 10.53C429.42 9.29 427.85 8.52 425.82 8.52C423.31 8.52 421.27 9.45 420.02 11.15C418.49 13.16 410.82 23.25 397.01 41.42C381.6 23.25 373.04 13.16 371.33 11.15C369.77 9.45 367.89 8.52 365.38 8.52C363.19 8.52 361.47 9.14 360.22 10.37C358.96 11.61 358.49 13.15 358.49 14.85C358.49 17.02 359.28 18.87 360.84 20.72C362.56 22.73 371.17 32.77 386.67 50.84C372.11 68.81 364.02 78.8 362.41 80.8C360.84 82.65 360.22 84.5 360.22 86.51C360.22 88.36 360.68 89.91 361.94 91.14C363.19 92.38 364.76 93 366.95 93C369.14 93 371.02 92.23 372.58 90.53C374.16 88.57 382.04 78.79 396.22 61.18C411.16 78.79 419.46 88.57 421.12 90.53C422.37 92.23 424.25 93 426.75 93C428.79 93 430.51 92.38 431.76 91.14C433.02 89.91 433.8 88.36 433.8 86.51C433.8 84.5 433.02 82.65 431.61 81.11C429.95 79.15 421.65 69.37 406.71 51.76Z" id="b14YoBNaZ"/><linearGradient id="gradienta1yMnr4GG8" x1="0" y1="1.0000000451550362" x2="0" y2="0"><stop style="stop-color: #3e4cd1;stop-opacity: 1" offset="0%"/><stop style="stop-color: #0ee4ef;stop-opacity: 1" offset="100%"/></linearGradient><path d="M406.71 51.76C420.9 33.51 428.78 23.37 430.36 21.34C431.76 19.49 432.55 17.48 432.55 15.16C432.55 13.31 431.92 11.76 430.67 10.53C429.42 9.29 427.85 8.52 425.82 8.52C423.31 8.52 421.27 9.45 420.02 11.15C418.49 13.16 410.82 23.25 397.01 41.42C381.6 23.25 373.04 13.16 371.33 11.15C369.77 9.45 367.89 8.52 365.38 8.52C363.19 8.52 361.47 9.14 360.22 10.37C358.96 11.61 358.49 13.15 358.49 14.85C358.49 17.02 359.28 18.87 360.84 20.72C362.56 22.73 371.17 32.77 386.67 50.84C372.11 68.81 364.02 78.8 362.41 80.8C360.84 82.65 360.22 84.5 360.22 86.51C360.22 88.36 360.68 89.91 361.94 91.14C363.19 92.38 364.76 93 366.95 93C369.14 93 371.02 92.23 372.58 90.53C374.16 88.57 382.04 78.79 396.22 61.18C411.16 78.79 419.46 88.57 421.12 90.53C422.37 92.23 424.25 93 426.75 93C428.79 93 430.51 92.38 431.76 91.14C433.02 89.91 433.8 88.36 433.8 86.51C433.8 84.5 433.02 82.65 431.61 81.11C429.95 79.15 421.65 69.37 406.71 51.76Z" id="a3fkbkVGK1"/></defs><g class="currentLayer" style=""><title>Layer 1</title><g id="svg_1"><g id="svg_2"><g id="svg_3"><use xlink:href="#aABjPntsk" opacity="1" fill="#000000" fill-opacity="0" id="svg_4"/><g id="svg_5"><use xlink:href="#aABjPntsk" opacity="1" fill-opacity="0" stroke="#000000" stroke-width="1" stroke-opacity="0" id="svg_6"/></g></g><g id="svg_7"><use xlink:href="#baNYLomSZ" opacity="1" fill="#000000" fill-opacity="0" id="svg_8"/><g id="svg_9"><use xlink:href="#baNYLomSZ" opacity="1" fill-opacity="0" stroke="#000000" stroke-width="1" stroke-opacity="0" id="svg_10"/></g></g><g id="svg_11"><use xlink:href="#c5bzR4Fee1" opacity="1" fill="url(#gradienta109tUO2b)" id="svg_12"/><g id="svg_13"><use xlink:href="#c5bzR4Fee1" opacity="1" fill-opacity="0" stroke="#000000" stroke-width="1" stroke-opacity="0" id="svg_14"/></g></g><g id="svg_15"><use xlink:href="#hYQzZMAzi" opacity="1" fill="#27d8db" fill-opacity="1" id="svg_16"/><g id="svg_17"><use xlink:href="#hYQzZMAzi" opacity="1" fill-opacity="0" stroke="#000000" stroke-width="0" stroke-opacity="0" id="svg_18"/></g></g><g id="svg_19"><use xlink:href="#f1zBJmAxX1" opacity="1" fill="url(#gradientc13xHepEqD)" id="svg_20"/><g id="svg_21"><use xlink:href="#f1zBJmAxX1" opacity="1" fill-opacity="0" stroke="#000000" stroke-width="1" stroke-opacity="0" id="svg_22"/></g></g><g id="svg_23"><use xlink:href="#ff1v2LQKh" opacity="1" fill="#27d8db" fill-opacity="1" id="svg_24"/><g id="svg_25"><use xlink:href="#ff1v2LQKh" opacity="1" fill-opacity="0" stroke="#000000" stroke-width="0" stroke-opacity="0" id="svg_26"/></g></g><g id="svg_27"><use xlink:href="#buWma260r" opacity="1" fill="url(#gradientd5KHCV6WuO)" id="svg_28"/><g id="svg_29"><use xlink:href="#buWma260r" opacity="1" fill-opacity="0" stroke="#000000" stroke-width="1" stroke-opacity="0" id="svg_30"/></g></g><g id="svg_31"><use xlink:href="#eDamIobmp" opacity="1" fill="#27d8db" fill-opacity="1" id="svg_32"/><g id="svg_33"><use xlink:href="#eDamIobmp" opacity="1" fill-opacity="0" stroke="#000000" stroke-width="0" stroke-opacity="0" id="svg_34"/></g></g><g id="svg_35"><use xlink:href="#aw39N3Lg" opacity="1" fill="url(#gradienth3iGrZzsmD)" id="svg_36"/><g id="svg_37"><use xlink:href="#aw39N3Lg" opacity="1" fill-opacity="0" stroke="#000000" stroke-width="1" stroke-opacity="0" id="svg_38"/></g></g><g id="svg_39"><use xlink:href="#cJP1U1RZl" opacity="1" fill="#27d8db" fill-opacity="1" id="svg_40"/><g id="svg_41"><use xlink:href="#cJP1U1RZl" opacity="1" fill-opacity="0" stroke="#000000" stroke-width="0" stroke-opacity="0" id="svg_42"/></g></g><g id="svg_43"><use xlink:href="#b14YoBNaZ" opacity="1" fill="url(#gradienta1yMnr4GG8)" id="svg_44"/><g id="svg_45"><use xlink:href="#b14YoBNaZ" opacity="1" fill-opacity="0" stroke="#000000" stroke-width="1" stroke-opacity="0" id="svg_46"/></g></g><g id="svg_47"><use xlink:href="#a3fkbkVGK1" opacity="1" fill="#27d8db" fill-opacity="1" id="svg_48"/><g id="svg_49"><use xlink:href="#a3fkbkVGK1" opacity="1" fill-opacity="0" stroke="#000000" stroke-width="0" stroke-opacity="0" id="svg_50"/></g></g></g></g></g></svg>