<?xml version="1.0" encoding="UTF-8" standalone="no"?>
<!DOCTYPE svg PUBLIC "-//W3C//DTD SVG 1.1//EN" "http://www.w3.org/Graphics/SVG/1.1/DTD/svg11.dtd">
<svg version="1.1" xmlns="http://www.w3.org/2000/svg" xmlns:xlink="http://www.w3.org/1999/xlink" preserveAspectRatio="xMidYMid meet" viewBox="0 0 455 92" width="455" height="92"><defs><path d="M79.17 0C79.17 0 79.17 0 79.17 0C79.17 54.73 79.17 85.13 79.17 91.21C79.17 91.21 79.17 91.21 79.17 91.21C31.67 91.21 5.28 91.21 0 91.21C0 91.21 0 91.21 0 91.21C0 36.48 0 6.08 0 0C0 0 0 0 0 0C47.5 0 73.89 0 79.17 0Z" id="cmGbXX6ie"></path><path d="M29.68 16.5C20.44 25.61 15.9 36.58 15.9 49.55C15.9 52.81 15.9 78.88 15.9 82.13C15.9 84.3 16.53 86 18.09 87.39C19.5 88.93 21.22 89.55 23.42 89.55C25.45 89.55 27.17 88.93 28.58 87.39C30.15 86 30.93 84.3 30.93 82.13C30.93 78.88 30.93 52.81 30.93 49.55C30.93 40.75 34.06 33.18 40.33 27C46.74 20.67 54.42 17.58 63.34 17.58C65.38 17.58 67.1 16.81 68.66 15.42C70.07 13.87 70.85 12.18 70.85 10.17C70.85 8.16 70.07 6.31 68.66 4.92C67.1 3.53 65.38 2.75 63.34 2.75C50.19 2.75 39.07 7.39 29.68 16.5Z" id="c24qjztU1S"></path><linearGradient id="gradientb5671NAOYS" gradientUnits="userSpaceOnUse" x1="15.9" y1="89.55" x2="15.9" y2="2.75"><stop style="stop-color: #3976fc;stop-opacity: 1" offset="0%"></stop><stop style="stop-color: #0ee4ef;stop-opacity: 1" offset="100%"></stop></linearGradient><path d="M129.29 4.49L130.18 4.53L131.06 4.58L131.93 4.66L132.8 4.74L133.66 4.85L134.51 4.97L135.35 5.11L136.19 5.26L137.02 5.43L137.85 5.61L138.66 5.81L139.47 6.03L140.28 6.26L141.07 6.51L141.86 6.77L142.65 7.05L143.42 7.35L144.19 7.66L144.96 7.98L145.71 8.33L146.46 8.68L147.2 9.06L147.94 9.45L148.67 9.85L149.39 10.27L150.11 10.7L150.82 11.15L151.52 11.62L152.22 12.1L152.9 12.6L153.59 13.11L154.26 13.64L154.93 14.18L155.6 14.74L156.25 15.31L156.9 15.9L157.55 16.5L158.19 17.12L158.82 17.75L159.44 18.38L160.05 19.02L160.64 19.67L161.21 20.32L161.76 20.99L162.3 21.65L162.83 22.33L163.33 23.01L163.82 23.69L164.3 24.39L164.76 25.09L165.2 25.79L165.62 26.5L166.03 27.22L166.42 27.95L166.8 28.68L167.16 29.42L167.51 30.17L167.83 30.92L168.15 31.68L168.44 32.44L168.72 33.22L168.98 34L169.23 34.78L169.46 35.57L169.68 36.37L169.88 37.18L170.06 37.99L170.23 38.81L170.38 39.64L170.51 40.47L170.63 41.31L170.74 42.16L170.82 43.01L170.9 43.87L170.95 44.74L170.99 45.62L171.02 46.5L171.02 47.39L171.02 82.75L171.02 82.91L171.02 83.07L171.01 83.23L171 83.39L170.99 83.54L170.97 83.69L170.95 83.85L170.93 84L170.91 84.14L170.88 84.29L170.85 84.43L170.82 84.58L170.78 84.72L170.74 84.86L170.7 85L170.66 85.13L170.61 85.27L170.56 85.4L170.51 85.54L170.46 85.67L170.4 85.8L170.34 85.92L170.28 86.05L170.21 86.18L170.14 86.3L170.07 86.42L170 86.54L169.93 86.66L169.85 86.78L169.77 86.9L169.69 87.02L169.6 87.13L169.51 87.24L169.42 87.36L169.33 87.47L169.24 87.58L169.14 87.69L169.04 87.79L168.94 87.9L168.83 88L168.71 88.12L168.6 88.23L168.48 88.34L168.36 88.44L168.24 88.54L168.12 88.64L167.99 88.73L167.87 88.82L167.75 88.91L167.63 88.99L167.5 89.07L167.38 89.15L167.25 89.23L167.12 89.3L167 89.37L166.87 89.43L166.74 89.49L166.61 89.55L166.48 89.61L166.35 89.66L166.21 89.71L166.08 89.76L165.95 89.81L165.81 89.85L165.67 89.89L165.54 89.92L165.4 89.96L165.26 89.99L165.12 90.02L164.98 90.04L164.84 90.07L164.69 90.09L164.55 90.11L164.4 90.12L164.26 90.14L164.11 90.15L163.96 90.15L163.81 90.16L163.66 90.16L163.51 90.17L163.34 90.16L163.18 90.16L163.02 90.15L162.86 90.15L162.71 90.14L162.55 90.12L162.4 90.11L162.25 90.09L162.1 90.07L161.95 90.04L161.8 90.02L161.66 89.99L161.51 89.96L161.37 89.92L161.23 89.89L161.09 89.85L160.96 89.81L160.82 89.76L160.69 89.71L160.55 89.66L160.42 89.61L160.29 89.55L160.16 89.49L160.04 89.43L159.91 89.37L159.79 89.3L159.66 89.23L159.54 89.15L159.42 89.07L159.3 88.99L159.19 88.91L159.07 88.82L158.95 88.73L158.84 88.64L158.73 88.54L158.62 88.44L158.51 88.34L158.4 88.23L158.29 88.12L158.19 88L158.07 87.9L157.96 87.79L157.85 87.69L157.74 87.58L157.64 87.47L157.54 87.36L157.45 87.24L157.36 87.13L157.27 87.02L157.18 86.9L157.1 86.78L157.02 86.66L156.95 86.54L156.87 86.42L156.8 86.3L156.74 86.18L156.67 86.05L156.61 85.92L156.56 85.8L156.5 85.67L156.45 85.54L156.4 85.4L156.36 85.27L156.31 85.13L156.27 85L156.24 84.86L156.2 84.72L156.17 84.58L156.14 84.43L156.12 84.29L156.09 84.14L156.07 84L156.05 83.85L156.04 83.69L156.02 83.54L156.01 83.39L156 83.23L156 83.07L155.99 82.91L155.99 82.75L155.99 79.82L155.38 80.33L154.76 80.83L154.14 81.32L153.51 81.8L152.87 82.26L152.24 82.71L151.59 83.14L150.94 83.56L150.29 83.97L149.63 84.37L148.96 84.75L148.29 85.12L147.61 85.47L146.93 85.82L146.25 86.15L145.56 86.46L144.86 86.77L144.16 87.06L143.45 87.33L142.74 87.6L142.03 87.85L141.31 88.09L140.58 88.31L139.85 88.52L139.12 88.72L138.37 88.91L137.63 89.08L136.88 89.24L136.12 89.39L135.36 89.53L134.6 89.65L133.83 89.76L133.05 89.85L132.27 89.94L131.49 90.01L130.7 90.06L129.91 90.11L129.11 90.14L128.31 90.16L127.5 90.17L126.61 90.16L125.73 90.13L124.85 90.09L123.98 90.04L123.11 89.97L122.25 89.88L121.4 89.78L120.55 89.66L119.71 89.53L118.87 89.38L118.04 89.22L117.22 89.04L116.4 88.84L115.59 88.63L114.79 88.41L113.99 88.16L113.2 87.91L112.41 87.63L111.64 87.34L110.86 87.04L110.1 86.72L109.34 86.38L108.59 86.03L107.84 85.66L107.1 85.28L106.37 84.88L105.64 84.47L104.92 84.04L104.21 83.59L103.5 83.13L102.8 82.65L102.11 82.16L101.42 81.65L100.74 81.13L100.07 80.59L99.4 80.03L98.75 79.46L98.09 78.88L97.45 78.27L96.81 77.66L96.19 77.03L95.58 76.39L94.98 75.75L94.4 75.1L93.84 74.45L93.29 73.79L92.76 73.12L92.25 72.45L91.75 71.77L91.26 71.08L90.8 70.39L90.34 69.69L89.91 68.98L89.49 68.27L89.08 67.55L88.7 66.82L88.32 66.09L87.97 65.35L87.63 64.61L87.3 63.85L86.99 63.09L86.7 62.33L86.42 61.56L86.16 60.78L85.91 59.99L85.68 59.2L85.47 58.4L85.27 57.59L85.09 56.78L84.92 55.96L84.77 55.13L84.64 54.3L84.52 53.46L84.42 52.61L84.33 51.76L84.26 50.9L84.2 50.03L84.16 49.16L84.14 48.27L84.13 47.39L84.14 46.5L84.16 45.62L84.2 44.74L84.26 43.87L84.33 43.01L84.42 42.16L84.52 41.31L84.64 40.47L84.77 39.64L84.92 38.81L85.09 37.99L85.27 37.18L85.47 36.37L85.68 35.57L85.91 34.78L86.16 34L86.42 33.22L86.7 32.44L86.99 31.68L87.3 30.92L87.63 30.17L87.97 29.42L88.32 28.68L88.7 27.95L89.08 27.22L89.49 26.5L89.91 25.79L90.34 25.09L90.8 24.39L91.26 23.69L91.75 23.01L92.25 22.33L92.76 21.65L93.29 20.99L93.84 20.32L94.4 19.67L94.98 19.02L95.58 18.38L96.19 17.75L96.81 17.12L97.45 16.5L98.09 15.9L98.75 15.31L99.4 14.74L100.07 14.18L100.74 13.64L101.42 13.11L102.11 12.6L102.8 12.1L103.5 11.62L104.21 11.15L104.92 10.7L105.64 10.27L106.37 9.85L107.1 9.45L107.84 9.06L108.59 8.68L109.34 8.33L110.1 7.98L110.86 7.66L111.64 7.35L112.41 7.05L113.2 6.77L113.99 6.51L114.79 6.26L115.59 6.03L116.4 5.81L117.22 5.61L118.04 5.43L118.87 5.26L119.71 5.11L120.55 4.97L121.4 4.85L122.25 4.74L123.11 4.66L123.98 4.58L124.85 4.53L125.73 4.49L126.61 4.46L127.5 4.45L128.4 4.46L129.29 4.49ZM126.17 19.31L125.51 19.34L124.86 19.39L124.21 19.45L123.57 19.52L122.93 19.61L122.3 19.71L121.68 19.83L121.06 19.96L120.45 20.1L119.84 20.26L119.24 20.43L118.64 20.61L118.05 20.81L117.46 21.02L116.89 21.25L116.31 21.48L115.74 21.74L115.18 22L114.63 22.28L114.07 22.57L113.53 22.88L112.99 23.2L112.46 23.53L111.93 23.88L111.41 24.24L110.9 24.62L110.39 25L109.88 25.41L109.39 25.82L108.9 26.25L108.41 26.69L107.93 27.15L107.46 27.62L106.98 28.09L106.52 28.56L106.07 29.04L105.64 29.52L105.22 30.01L104.82 30.51L104.43 31.01L104.06 31.52L103.7 32.03L103.35 32.55L103.02 33.08L102.7 33.61L102.39 34.15L102.1 34.69L101.83 35.24L101.56 35.79L101.32 36.35L101.08 36.92L100.86 37.49L100.65 38.07L100.46 38.65L100.28 39.24L100.11 39.83L99.96 40.43L99.82 41.04L99.69 41.65L99.58 42.26L99.48 42.88L99.4 43.51L99.32 44.14L99.27 44.78L99.22 45.42L99.19 46.07L99.17 46.73L99.16 47.39L99.17 48.05L99.19 48.7L99.22 49.35L99.27 49.99L99.32 50.63L99.4 51.26L99.48 51.89L99.58 52.51L99.69 53.13L99.82 53.74L99.96 54.34L100.11 54.94L100.28 55.54L100.46 56.12L100.65 56.71L100.86 57.28L101.08 57.86L101.32 58.42L101.56 58.98L101.83 59.54L102.1 60.08L102.39 60.63L102.7 61.17L103.02 61.7L103.35 62.22L103.7 62.74L104.06 63.26L104.43 63.76L104.82 64.27L105.22 64.76L105.64 65.25L106.07 65.74L106.52 66.22L106.98 66.69L107.46 67.15L107.93 67.62L108.41 68.08L108.9 68.52L109.39 68.95L109.88 69.36L110.39 69.76L110.9 70.14L111.41 70.51L111.93 70.87L112.46 71.21L112.99 71.54L113.53 71.85L114.07 72.15L114.63 72.44L115.18 72.71L115.74 72.97L116.31 73.21L116.89 73.45L117.46 73.66L118.05 73.87L118.64 74.06L119.24 74.24L119.84 74.4L120.45 74.55L121.06 74.69L121.68 74.81L122.3 74.92L122.93 75.02L123.57 75.11L124.21 75.18L124.86 75.24L125.51 75.28L126.17 75.31L126.83 75.33L127.5 75.34L128.17 75.33L128.83 75.31L129.49 75.28L130.14 75.24L130.79 75.18L131.43 75.11L132.06 75.02L132.69 74.92L133.32 74.81L133.94 74.69L134.55 74.55L135.16 74.4L135.76 74.24L136.36 74.06L136.95 73.87L137.53 73.66L138.11 73.45L138.69 73.21L139.25 72.97L139.82 72.71L140.37 72.44L140.92 72.15L141.47 71.85L142.01 71.54L142.54 71.21L143.07 70.87L143.59 70.51L144.1 70.14L144.61 69.76L145.11 69.36L145.61 68.95L146.1 68.52L146.59 68.08L147.07 67.62L147.54 67.15L148.02 66.69L148.48 66.22L148.93 65.74L149.36 65.25L149.78 64.76L150.19 64.27L150.58 63.76L150.96 63.26L151.33 62.74L151.68 62.22L152.02 61.7L152.34 61.17L152.65 60.63L152.95 60.08L153.23 59.54L153.5 58.98L153.76 58.42L154 57.86L154.23 57.28L154.44 56.71L154.64 56.12L154.83 55.54L155 54.94L155.16 54.34L155.3 53.74L155.43 53.13L155.55 52.51L155.66 51.89L155.74 51.26L155.82 50.63L155.88 49.99L155.93 49.35L155.97 48.7L155.99 48.05L155.99 47.39L155.99 46.73L155.97 46.07L155.93 45.42L155.88 44.78L155.82 44.14L155.74 43.51L155.66 42.88L155.55 42.26L155.43 41.65L155.3 41.04L155.16 40.43L155 39.83L154.83 39.24L154.64 38.65L154.44 38.07L154.23 37.49L154 36.92L153.76 36.35L153.5 35.79L153.23 35.24L152.95 34.69L152.65 34.15L152.34 33.61L152.02 33.08L151.68 32.55L151.33 32.03L150.96 31.52L150.58 31.01L150.19 30.51L149.78 30.01L149.36 29.52L148.93 29.04L148.48 28.56L148.02 28.09L147.54 27.62L147.07 27.15L146.59 26.69L146.1 26.25L145.61 25.82L145.11 25.41L144.61 25L144.1 24.62L143.59 24.24L143.07 23.88L142.54 23.53L142.01 23.2L141.47 22.88L140.92 22.57L140.37 22.28L139.82 22L139.25 21.74L138.69 21.48L138.11 21.25L137.53 21.02L136.95 20.81L136.36 20.61L135.76 20.43L135.16 20.26L134.55 20.1L133.94 19.96L133.32 19.83L132.69 19.71L132.06 19.61L131.43 19.52L130.79 19.45L130.14 19.39L129.49 19.34L128.83 19.31L128.17 19.29L127.5 19.28L126.83 19.29L126.17 19.31Z" id="d1cvQQfFrI"></path><linearGradient id="gradientb3TJM3aOAN" gradientUnits="userSpaceOnUse" x1="84.13" y1="90.17" x2="84.13" y2="4.45"><stop style="stop-color: #3976fc;stop-opacity: 1" offset="0%"></stop><stop style="stop-color: #0ee4ef;stop-opacity: 1" offset="100%"></stop></linearGradient><path d="M259.48 6.15C258.39 5.69 257.14 5.38 255.88 5.38C254.47 5.38 253.22 5.84 251.97 6.46C250.72 7.08 249.93 8.01 249.31 9.24C247.51 13.1 238.54 32.41 222.38 67.15C206.03 32.41 196.95 13.1 195.14 9.24C194.51 8.01 193.57 7.08 192.47 6.46C191.22 5.84 190.13 5.38 188.87 5.38C187.62 5.38 186.53 5.69 185.59 6.15C182.61 7.7 181.2 9.7 181.2 12.48C181.2 13.57 181.36 14.49 181.83 15.26C185.15 22.17 211.7 77.39 215.02 84.3C215.96 86.15 216.9 87.54 218.15 88.31C219.25 89.08 220.66 89.39 222.53 89.39C225.67 89.39 228.17 87.69 229.74 84.3C233.06 77.39 259.61 22.17 262.93 15.26C263.4 14.34 263.71 13.26 263.71 12.33C263.71 11.09 263.24 9.86 262.62 8.78C261.83 7.7 260.74 6.77 259.48 6.15Z" id="bxd6rgOmp"></path><linearGradient id="gradienti5ArzHab" gradientUnits="userSpaceOnUse" x1="181.2" y1="89.39" x2="181.2" y2="5.38"><stop style="stop-color: #3976fc;stop-opacity: 1" offset="0%"></stop><stop style="stop-color: #0ee4ef;stop-opacity: 1" offset="100%"></stop></linearGradient><path d="M344 80.59C345.72 79.35 346.51 77.66 346.82 75.65C346.98 73.49 346.51 71.79 345.1 70.09C343.84 68.54 342.12 67.62 340.09 67.46C338.05 67.31 336.17 67.77 334.61 69.16C329.28 73.33 323.33 75.34 316.6 75.34C308.77 75.34 302.04 72.71 296.56 67.15C290.93 61.75 288.26 55.11 288.26 47.39C288.26 39.66 290.93 33.02 296.56 27.46C302.04 22.06 308.77 19.28 316.6 19.28C323.02 19.28 328.81 21.29 333.98 25.15C338.99 29.01 342.28 33.95 344 39.97C341.26 39.97 319.34 39.97 316.6 39.97C314.57 39.97 312.69 40.75 311.28 42.14C309.87 43.53 309.09 45.38 309.09 47.39C309.09 49.39 309.87 51.25 311.28 52.64C312.69 54.03 314.57 54.8 316.6 54.8C320.2 54.8 349.01 54.8 352.61 54.8C354.65 54.8 356.37 54.03 357.78 52.64C359.34 51.25 360.13 49.39 360.13 47.39C360.13 35.49 355.74 25.46 347.29 17.12C338.83 8.78 328.66 4.45 316.6 4.45C304.55 4.45 294.37 8.78 285.92 17.12C277.46 25.46 273.23 35.49 273.23 47.39C273.23 59.28 277.46 69.32 285.92 77.66C294.37 86 304.55 90.17 316.6 90.17C326.94 90.17 336.02 87.08 344 80.59Z" id="f87MfDwjl"></path><linearGradient id="gradientb1crQndS4V" gradientUnits="userSpaceOnUse" x1="273.23" y1="90.17" x2="273.23" y2="4.45"><stop style="stop-color: #3976fc;stop-opacity: 1" offset="0%"></stop><stop style="stop-color: #0ee4ef;stop-opacity: 1" offset="100%"></stop></linearGradient><path d="M440.81 77.66C439.15 75.7 430.85 65.92 415.91 48.31C430.1 30.06 437.98 19.92 439.56 17.89C440.96 16.04 441.75 14.03 441.75 11.71C441.75 9.86 441.12 8.31 439.87 7.08C438.62 5.84 437.05 5.07 435.02 5.07C432.51 5.07 430.47 6 429.22 7.7C427.69 9.71 420.02 19.8 406.21 37.97C390.8 19.8 382.24 9.71 380.53 7.7C378.97 6 377.09 5.07 374.58 5.07C372.39 5.07 370.67 5.69 369.42 6.92C368.16 8.16 367.69 9.7 367.69 11.4C367.69 13.57 368.48 15.42 370.04 17.27C371.76 19.28 380.37 29.32 395.87 47.39C381.31 65.36 373.22 75.35 371.61 77.35C370.04 79.2 369.42 81.05 369.42 83.06C369.42 84.91 369.88 86.46 371.14 87.69C372.39 88.93 373.96 89.55 376.15 89.55C378.34 89.55 380.22 88.78 381.78 87.08C383.36 85.12 391.24 75.34 405.42 57.73C420.36 75.34 428.66 85.12 430.32 87.08C431.57 88.78 433.45 89.55 435.95 89.55C437.99 89.55 439.71 88.93 440.96 87.69C442.22 86.46 443 84.91 443 83.06C443 81.05 442.22 79.2 440.81 77.66Z" id="d1IjxLQzRW"></path><linearGradient id="gradienta3InaaGFHb" gradientUnits="userSpaceOnUse" x1="367.69" y1="89.55" x2="367.69" y2="5.07"><stop style="stop-color: #3976fc;stop-opacity: 1" offset="0%"></stop><stop style="stop-color: #0ee4ef;stop-opacity: 1" offset="100%"></stop></linearGradient></defs><g><g><g><use xlink:href="#cmGbXX6ie" opacity="1" fill="#000000" fill-opacity="0"></use><g><use xlink:href="#cmGbXX6ie" opacity="1" fill-opacity="0" stroke="#000000" stroke-width="1" stroke-opacity="0"></use></g></g><g><use xlink:href="#c24qjztU1S" opacity="1" fill="url(#gradientb5671NAOYS)"></use><g><use xlink:href="#c24qjztU1S" opacity="1" fill-opacity="0" stroke="#000000" stroke-width="0" stroke-opacity="0"></use></g></g><g><use xlink:href="#d1cvQQfFrI" opacity="1" fill="url(#gradientb3TJM3aOAN)"></use><g><use xlink:href="#d1cvQQfFrI" opacity="1" fill-opacity="0" stroke="#000000" stroke-width="0" stroke-opacity="0"></use></g></g><g><use xlink:href="#bxd6rgOmp" opacity="1" fill="url(#gradienti5ArzHab)"></use><g><use xlink:href="#bxd6rgOmp" opacity="1" fill-opacity="0" stroke="#000000" stroke-width="0" stroke-opacity="0"></use></g></g><g><use xlink:href="#f87MfDwjl" opacity="1" fill="url(#gradientb1crQndS4V)"></use><g><use xlink:href="#f87MfDwjl" opacity="1" fill-opacity="0" stroke="#000000" stroke-width="0" stroke-opacity="0"></use></g></g><g><use xlink:href="#d1IjxLQzRW" opacity="1" fill="url(#gradienta3InaaGFHb)"></use><g><use xlink:href="#d1IjxLQzRW" opacity="1" fill-opacity="0" stroke="#000000" stroke-width="0" stroke-opacity="0"></use></g></g></g></g></svg>